<svg xmlns="http://www.w3.org/2000/svg" viewBox="0 0 64 64">
  <!-- The display face's A, outlined from Fraunces at the hero's weight. -->
  <rect width="64" height="64" rx="14" fill="#f3ead7"/>
  <rect x="1.5" y="1.5" width="61" height="61" rx="12.5" fill="none" stroke="#191713" stroke-opacity=".28" stroke-width="1.5"/>
  <path transform="translate(15.547,51.000) scale(0.02714,-0.02714)" fill="#191713" d="M269.64013671875 540.16015625H787.00146484375L789.96142578125 522.400390625H264.68017578125ZM306.197265625 5.919921875Q306.197265625 3.9599609375 304.477294921875 1.97998046875Q302.75732421875 0 299.3173828125 0H-0.439453125Q-3.359375 0 -5.33935546875 1.97998046875Q-7.3193359375 3.9599609375 -7.3193359375 5.919921875Q-7.3193359375 9.35986328125 -4.619384765625 10.83984375Q-1.91943359375 12.31982421875 0.5205078125 12.7998046875L43.4013671875 25.52001953125Q72.40087890625 35.31982421875 101.000244140625 65.859130859375Q129.599609375 96.3984375 149.87939453125 164.5576171875L485.96142578125 1296.32275390625Q496.2412109375 1329.921875 485.30126953125 1350.4013671875Q474.361328125 1370.880859375 442.68115234375 1381.4404296875Q432.92138671875 1387.68017578125 428.04150390625 1389.66015625Q423.16162109375 1391.64013671875 423.16162109375 1394.080078125Q423.16162109375 1397.52001953125 425.381591796875 1398.760009765625Q427.6015625 1400 432.04150390625 1400H776.67431640625Q780.59423828125 1400 782.55419921875 1398.760009765625Q784.51416015625 1397.52001953125 784.51416015625 1394.080078125Q784.51416015625 1391.64013671875 780.374267578125 1388.940185546875Q776.234375 1386.240234375 766.03466796875 1382.400390625Q738.994140625 1379.5205078125 733.714111328125 1370.66064453125Q728.43408203125 1361.80078125 736.35400390625 1337.12109375L1144.19482421875 64.7197265625Q1152.23486328125 40.599609375 1168.375 28.61962890625Q1184.51513671875 16.6396484375 1209.87548828125 14.23974609375Q1215.2353515625 12.7998046875 1217.435302734375 11.079833984375Q1219.63525390625 9.35986328125 1219.63525390625 5.919921875Q1219.63525390625 3.9599609375 1217.67529296875 1.97998046875Q1215.71533203125 0 1211.79541015625 0H810.44189453125Q807.0419921875 0 804.822021484375 1.97998046875Q802.60205078125 3.9599609375 802.60205078125 5.919921875Q802.60205078125 9.35986328125 805.58203125 10.35986328125Q808.56201171875 11.35986328125 813.40185546875 12.7998046875L865.08251953125 19.6796875Q888.3623046875 25.03955078125 894.40234375 38.279541015625Q900.4423828125 51.51953125 893.00244140625 74.2392578125L499.64111328125 1311.8427734375L521.24072265625 1354.1611328125L167.1591796875 161.677734375Q155.75927734375 123.59814453125 165.178955078125 96.0185546875Q174.5986328125 68.43896484375 200.01806640625 50.559326171875Q225.4375 32.6796875 261.716796875 21.919921875L297.3173828125 12.7998046875Q302.2373046875 11.83984375 304.21728515625 10.35986328125Q306.197265625 8.8798828125 306.197265625 5.919921875Z"/>
</svg>